<svg width="196" height="176" viewBox="0 0 196 176" fill="none" xmlns="http://www.w3.org/2000/svg">
<path d="M189.91 56.9999L107.17 3.33993C104.1 1.49683 100.586 0.523193 97.0049 0.523193C93.4239 0.523193 89.9102 1.49683 86.8399 3.33993L6.48989 55.4299C4.68842 56.4712 3.18866 57.963 2.13783 59.759C1.087 61.5549 0.521212 63.5932 0.495998 65.6738C0.470785 67.7544 0.987014 69.8058 1.99402 71.6267C3.00102 73.4476 4.46418 74.9753 6.23989 76.0599L86.7799 131C89.8189 132.929 93.335 133.974 96.9344 134.019C100.534 134.063 104.074 133.104 107.16 131.25L189.91 77.5999C191.722 76.5602 193.227 75.0608 194.273 73.2532C195.32 71.4456 195.871 69.3937 195.871 67.3049C195.871 65.2161 195.32 63.1643 194.273 61.3567C193.227 59.5491 191.722 58.0497 189.91 57.0099V56.9999ZM98.9099 118.45C98.3572 118.687 97.7608 118.805 97.1596 118.796C96.5583 118.787 95.9656 118.652 95.4199 118.4L18.4199 65.9099L95.1299 16.1299C95.721 15.8774 96.3571 15.7472 96.9999 15.7472C97.6427 15.7472 98.2788 15.8774 98.8699 16.1299L177.78 67.2799L98.9099 118.45Z" fill="#0080D4"/>
<path d="M86.8398 44.8199L43.2798 73.0599L56.8998 82.3899L95.1298 57.6099C95.7209 57.3574 96.357 57.2272 96.9998 57.2272C97.6426 57.2272 98.2787 57.3574 98.8698 57.6099L138.24 83.1299L152.24 74.0699L107.17 44.8199C104.098 42.98 100.585 42.0082 97.0048 42.0082C93.4244 42.0082 89.9112 42.98 86.8398 44.8199Z" fill="#0080D4"/>
<path d="M189.91 98.4599L181.29 92.8699L167.29 101.93L177.81 108.76L98.8999 159.91C98.3494 160.15 97.7554 160.273 97.1549 160.273C96.5544 160.273 95.9604 160.15 95.4099 159.91L18.4099 107.41L28.4099 100.94L14.7399 91.5699L6.48989 96.91C4.68842 97.9512 3.18866 99.4431 2.13783 101.239C1.087 103.035 0.521212 105.073 0.495998 107.154C0.470785 109.234 0.987014 111.286 1.99402 113.107C3.00102 114.928 4.46418 116.455 6.23989 117.54L86.7799 172.46C89.8186 174.391 93.3356 175.437 96.9358 175.479C100.536 175.521 104.077 174.559 107.16 172.7L189.9 119.05C191.712 118.01 193.217 116.511 194.263 114.703C195.31 112.896 195.861 110.844 195.861 108.755C195.861 106.666 195.31 104.614 194.263 102.807C193.217 100.999 191.712 99.4997 189.9 98.4599H189.91Z" fill="#0080D4"/>
</svg>
